<svg xmlns="http://www.w3.org/2000/svg" width="49.699" height="31.7" viewBox="0 0 49.699 31.7"><g transform="translate(2481.6 10768.6)"><g transform="translate(-2481 -10768)"><circle cx="4.128" cy="4.128" r="4.128" transform="matrix(0.151, -0.988, 0.988, 0.151, 8.729, 29.132)" fill="none" stroke="#AE9A6D" stroke-linecap="round" stroke-linejoin="round" stroke-miterlimit="10" stroke-width="1.2"/><circle cx="4.128" cy="4.128" r="4.128" transform="translate(36.248 29.09) rotate(-80.783)" fill="none" stroke="#AE9A6D" stroke-linecap="round" stroke-linejoin="round" stroke-miterlimit="10" stroke-width="1.2"/><line y2="6.643" transform="translate(35.128 18.215)" fill="none" stroke="#AE9A6D" stroke-linecap="round" stroke-miterlimit="10" stroke-width="1.2"/><line x2="19.295" transform="translate(17.561 25.151)" fill="none" stroke="#AE9A6D" stroke-linecap="round" stroke-miterlimit="10" stroke-width="1.2"/><line x2="10.185" transform="translate(1.677 18.215)" fill="none" stroke="#AE9A6D" stroke-linecap="round" stroke-miterlimit="10" stroke-width="1.2"/><path d="M171.444,134.771V121.329a1.188,1.188,0,0,1,1.188-1.188h29.356a1.188,1.188,0,0,1,1.188,1.188v13.693" transform="translate(-168.049 -120.141)" fill="none" stroke="#AE9A6D" stroke-linecap="round" stroke-linejoin="round" stroke-miterlimit="10" stroke-width="1.2"/><path d="M177.355,380.78h-4.722a1.188,1.188,0,0,1-1.188-1.188v-2.414" transform="translate(-168.049 -355.629)" fill="none" stroke="#AE9A6D" stroke-linecap="round" stroke-linejoin="round" stroke-miterlimit="10" stroke-width="1.2"/><line x2="7.643" transform="translate(0 21.549)" fill="none" stroke="#AE9A6D" stroke-linecap="round" stroke-miterlimit="10" stroke-width="1.2"/><line x2="11.713" transform="translate(20.145 21.549)" fill="none" stroke="#AE9A6D" stroke-linecap="round" stroke-miterlimit="10" stroke-width="1.2"/><path d="M549.944,278.141h12.184a1.188,1.188,0,0,1,1.188,1.188v9.528a1.188,1.188,0,0,1-1.188,1.188h-2.2" transform="translate(-514.816 -264.895)" fill="none" stroke="#AE9A6D" stroke-linecap="round" stroke-linejoin="round" stroke-miterlimit="10" stroke-width="1.2"/><path d="M672.406,316.641h-3.389v1.97a1.519,1.519,0,0,0,1.695,1.467h1.695" transform="translate(-623.906 -300.167)" fill="none" stroke="#AE9A6D" stroke-linecap="round" stroke-linejoin="round" stroke-miterlimit="10" stroke-width="1.2"/><path d="M549.944,161.278h9.165v-1.97a1.518,1.518,0,0,0-1.695-1.467h-7.47" transform="translate(-514.816 -154.68)" fill="none" stroke="#AE9A6D" stroke-linecap="round" stroke-linejoin="round" stroke-miterlimit="10" stroke-width="1.2"/><line x2="1.641" y2="6.648" transform="translate(43.47 6.598)" fill="none" stroke="#AE9A6D" stroke-linecap="round" stroke-miterlimit="10" stroke-width="1.2"/><path d="M314.43,208.527,306.959,216l-4.062-4.062" transform="translate(-288.481 -201.117)" fill="none" stroke="#AE9A6D" stroke-linecap="round" stroke-linejoin="round" stroke-miterlimit="10" stroke-width="1.2"/></g></g></svg>